<?xml version="1.0" encoding="UTF-8" standalone="no"?><!DOCTYPE svg PUBLIC "-//W3C//DTD SVG 1.1//EN" "http://www.w3.org/Graphics/SVG/1.1/DTD/svg11.dtd"><svg width="100%" height="100%" viewBox="0 0 3417 3022" version="1.1" xmlns="http://www.w3.org/2000/svg" xmlns:xlink="http://www.w3.org/1999/xlink" xml:space="preserve" xmlns:serif="http://www.serif.com/" style="fill-rule:evenodd;clip-rule:evenodd;stroke-linejoin:round;stroke-miterlimit:2;"><circle cx="1775.66" cy="1459.6" r="1459.6" style="fill:#f2f2f2;"/><g><g><g><path d="M3322.47,2542.67l-236.636,-236.636c-26.126,-26.106 -59.691,-40.187 -93.841,-42.344l-80.388,-80.374c119.417,-189.847 96.564,-444.205 -68.572,-609.335c-191.686,-191.692 -503.564,-191.685 -695.269,0c-191.658,191.686 -191.658,503.577 0.027,695.262c165.137,165.144 419.494,187.983 609.308,68.573l80.394,80.374c2.13,34.17 16.231,67.735 42.351,93.848l236.636,236.636c56.881,56.888 149.103,56.874 206.004,0c56.86,-56.881 56.874,-149.11 -0.014,-206.004Zm-582.419,-376.415c-134.886,134.879 -354.365,134.879 -489.265,-0c-134.879,-134.886 -134.879,-354.358 0,-489.258c134.873,-134.886 354.338,-134.886 489.265,0.007c134.873,134.886 134.873,354.365 0,489.251Z" style="fill:#3f3d56;fill-rule:nonzero;"/><path d="M2065.54,1499.41c112.646,-112.632 262.586,-174.665 422.223,-174.665c159.638,0 309.585,62.026 422.224,174.665c96.162,96.149 156.99,223.589 171.316,358.877c11.011,104.05 -5.513,209.611 -47.782,305.399l1.436,1.436c44.597,10.916 85.321,33.837 117.818,66.314l23.356,23.363l0,-1633.41c0,-25.718 -12.733,-49.783 -34.027,-64.245c-208.563,-141.691 -445.437,-216.6 -685.108,-216.6c-223.311,-0 -444.199,65.068 -641.982,188.589c-197.851,-123.521 -418.793,-188.589 -642.104,-188.589c-239.603,-0 -476.484,74.902 -684.992,216.6c-21.281,14.469 -34.014,38.533 -34.014,64.245l-0,1820.83c-0,28.781 15.897,55.193 41.337,68.675c25.439,13.468 56.2,11.76 80.019,-4.403c182.634,-124.1 389.326,-189.732 597.678,-189.732c208.365,-0 415.097,65.632 597.799,189.745c13.081,8.922 28.339,13.434 43.61,13.434c0.082,0 0.17,-0.013 0.266,-0.013c15.659,0.204 31.305,-4.315 44.685,-13.434c78.128,-53.09 160.686,-95.387 245.878,-126.516c-13.639,-11.412 -26.903,-23.397 -39.615,-36.123c-232.832,-232.812 -232.832,-611.629 -0.021,-844.44Zm-25.725,-635.258c145.693,-99.606 344.79,-114.476 450.514,-114.476c105.718,0 304.828,14.877 450.514,114.476c35.872,24.521 45.06,73.46 20.56,109.318c-24.521,35.858 -73.48,45.06 -109.325,20.546c-80.897,-55.309 -212.755,-87.036 -361.735,-87.036c-148.994,-0 -280.859,31.72 -361.743,87.036c-13.57,9.276 -29.032,13.734 -44.317,13.734c-25.106,-0 -49.769,-11.985 -65.021,-34.273c-24.506,-35.859 -15.298,-84.804 20.553,-109.325Zm0,340.278c145.693,-99.606 344.79,-114.476 450.514,-114.476c105.718,-0 304.828,14.877 450.514,114.476c35.872,24.52 45.06,73.459 20.56,109.318c-24.521,35.858 -73.48,45.059 -109.325,20.546c-80.897,-55.309 -212.755,-87.037 -361.735,-87.037c-148.994,0 -280.859,31.721 -361.743,87.037c-13.57,9.276 -29.032,13.733 -44.317,13.733c-25.106,0 -49.769,-11.984 -65.021,-34.273c-24.506,-35.858 -15.298,-84.804 20.553,-109.324Zm-429.063,789.88c-24.513,35.865 -73.466,45.059 -109.324,20.552c-80.898,-55.315 -212.755,-87.036 -361.742,-87.036c-148.988,0 -280.852,31.721 -361.743,87.036c-13.57,9.27 -29.032,13.741 -44.317,13.741c-25.106,-0 -49.77,-11.985 -65.014,-34.273c-24.514,-35.865 -15.312,-84.804 20.553,-109.311c145.693,-99.619 344.796,-114.476 450.521,-114.476c105.724,0 304.827,14.884 450.52,114.476c35.859,24.487 45.053,73.432 20.546,109.291Zm0,-340.278c-24.513,35.865 -73.466,45.06 -109.324,20.553c-80.898,-55.316 -212.755,-87.036 -361.742,-87.036c-148.988,-0 -280.852,31.72 -361.743,87.036c-13.57,9.269 -29.032,13.74 -44.317,13.74c-25.106,0 -49.77,-11.984 -65.014,-34.273c-24.514,-35.865 -15.312,-84.804 20.553,-109.317c145.693,-99.606 344.796,-114.476 450.521,-114.476c105.724,-0 304.827,14.877 450.52,114.476c35.859,24.493 45.053,73.439 20.546,109.297Zm0,-340.278c-24.513,35.859 -73.466,45.06 -109.324,20.546c-80.898,-55.308 -212.755,-87.036 -361.742,-87.036c-148.988,0 -280.852,31.721 -361.743,87.036c-13.57,9.276 -29.032,13.734 -44.317,13.734c-25.106,-0 -49.77,-11.985 -65.014,-34.273c-24.514,-35.858 -15.312,-84.804 20.553,-109.317c145.693,-99.606 344.796,-114.477 450.521,-114.477c105.724,0 304.827,14.877 450.52,114.477c35.859,24.506 45.053,73.452 20.546,109.31Zm0,-340.277c-24.513,35.858 -73.466,45.059 -109.324,20.546c-80.898,-55.309 -212.755,-87.036 -361.742,-87.036c-148.988,-0 -280.852,31.72 -361.743,87.036c-13.57,9.276 -29.032,13.733 -44.317,13.733c-25.106,0 -49.77,-11.984 -65.014,-34.272c-24.514,-35.859 -15.312,-84.804 20.553,-109.318c145.693,-99.606 344.796,-114.476 450.521,-114.476c105.724,-0 304.827,14.877 450.52,114.476c35.859,24.507 45.053,73.452 20.546,109.311Z" style="fill:#fd6378;fill-rule:nonzero;"/><g><g><rect x="2665.22" y="1257.64" width="275.685" height="97.859" style="fill:#3f3d56;"/><rect x="1977.73" y="1270.77" width="236.639" height="84.73" style="fill:#3f3d56;"/><rect x="740.538" y="811.668" width="2234.59" height="481.203" style="fill:#3f3d56;"/></g><rect x="692.443" y="912.855" width="963.196" height="1205.6" style="fill:#3f3d56;"/></g><path d="M2084.56,1493.08c106.234,-102.368 214.363,-158.748 364.914,-158.748c150.552,-0 291.964,56.374 398.192,158.748c90.689,87.388 148.055,203.216 161.565,326.175c10.384,94.569 -5.199,190.511 -45.062,277.57l-18.754,46.668c42.059,9.921 73.079,15.195 121.294,31.384l36.194,17.48l-4.241,-1497.29c-0,-23.374 -12.008,-45.246 -32.091,-58.39c-196.692,-128.78 -420.084,-196.863 -646.113,-196.863c-210.601,0 -418.916,59.139 -605.442,171.404c-186.589,-112.265 -394.956,-171.404 -605.556,-171.404c-225.966,0 -449.364,68.077 -646.005,196.863c-20.069,13.15 -32.078,35.022 -32.078,58.39l0,1654.91c0,26.158 14.993,50.164 38.984,62.417c23.991,12.241 53.002,10.688 75.465,-4.002c172.239,-112.791 367.166,-172.443 563.659,-172.443c196.506,0 391.472,59.652 563.775,172.455c12.335,8.109 26.725,12.21 41.127,12.21c0.077,0 0.161,-0.012 0.251,-0.012c14.768,0.185 29.523,-3.922 42.142,-12.21c73.68,-48.252 151.54,-86.695 231.883,-114.987c-12.863,-10.373 -25.372,-21.265 -37.361,-32.832c-219.579,-211.596 -186.302,-555.894 33.258,-767.491Zm-57.538,-577.37c137.401,-90.529 325.165,-104.045 424.872,-104.045c99.7,0 287.477,13.522 424.872,104.045c33.83,22.286 42.495,66.765 19.389,99.356c-23.125,32.591 -69.297,40.954 -103.102,18.674c-76.293,-50.269 -200.645,-79.105 -341.146,-79.105c-140.514,-0 -264.873,28.83 -341.153,79.105c-12.798,8.431 -27.38,12.482 -41.795,12.482c-23.677,0 -46.937,-10.892 -61.32,-31.15c-23.112,-32.59 -14.428,-77.076 19.383,-99.362Zm0,309.27c137.401,-90.529 325.165,-104.044 424.872,-104.044c99.7,-0 287.477,13.521 424.872,104.044c33.83,22.286 42.495,66.765 19.389,99.356c-23.125,32.591 -69.297,40.954 -103.102,18.674c-76.293,-50.269 -200.645,-79.105 -341.146,-79.105c-140.514,-0 -264.873,28.83 -341.153,79.105c-12.798,8.431 -27.38,12.482 -41.795,12.482c-23.677,0 -46.937,-10.892 -61.32,-31.149c-23.112,-32.591 -14.428,-77.077 19.383,-99.363Zm-404.641,717.903c-23.119,32.597 -69.285,40.953 -103.102,18.68c-76.293,-50.275 -200.646,-79.105 -341.153,-79.105c-140.507,-0 -264.866,28.83 -341.153,79.105c-12.798,8.424 -27.38,12.488 -41.795,12.488c-23.677,-0 -46.936,-10.893 -61.313,-31.15c-23.119,-32.597 -14.441,-77.076 19.383,-99.35c137.401,-90.542 325.171,-104.044 424.878,-104.044c99.707,-0 287.477,13.527 424.878,104.044c33.818,22.255 42.489,66.741 19.377,99.332Zm-0,-309.27c-23.119,32.597 -69.285,40.953 -103.102,18.68c-76.293,-50.275 -200.646,-79.106 -341.153,-79.106c-140.507,0 -264.866,28.831 -341.153,79.106c-12.798,8.424 -27.38,12.488 -41.795,12.488c-23.677,-0 -46.936,-10.893 -61.313,-31.15c-23.119,-32.597 -14.441,-77.076 19.383,-99.356c137.401,-90.529 325.171,-104.045 424.878,-104.045c99.707,0 287.477,13.522 424.878,104.045c33.818,22.261 42.489,66.747 19.377,99.338Zm-0,-309.27c-23.119,32.59 -69.285,40.953 -103.102,18.673c-76.293,-50.269 -200.646,-79.105 -341.153,-79.105c-140.507,0 -264.866,28.83 -341.153,79.105c-12.798,8.431 -27.38,12.482 -41.795,12.482c-23.677,0 -46.936,-10.892 -61.313,-31.149c-23.119,-32.591 -14.441,-77.077 19.383,-99.356c137.401,-90.53 325.171,-104.045 424.878,-104.045c99.707,-0 287.477,13.521 424.878,104.045c33.818,22.273 42.489,66.759 19.377,99.35Zm-0,-309.271c-23.119,32.591 -69.285,40.954 -103.102,18.674c-76.293,-50.269 -200.646,-79.105 -341.153,-79.105c-140.507,0 -264.866,28.83 -341.153,79.105c-12.798,8.431 -27.38,12.482 -41.795,12.482c-23.677,0 -46.936,-10.892 -61.313,-31.149c-23.119,-32.591 -14.441,-77.077 19.383,-99.357c137.401,-90.529 325.171,-104.044 424.878,-104.044c99.707,-0 287.477,13.521 424.878,104.044c33.818,22.274 42.489,66.76 19.377,99.35Z" style="fill:#f2f2f2;fill-rule:nonzero;"/></g></g></g></svg>