<?xml version="1.0" encoding="UTF-8" standalone="no"?><!DOCTYPE svg PUBLIC "-//W3C//DTD SVG 1.1//EN" "http://www.w3.org/Graphics/SVG/1.1/DTD/svg11.dtd"><svg width="100%" height="100%" viewBox="0 0 3417 3022" version="1.1" xmlns="http://www.w3.org/2000/svg" xmlns:xlink="http://www.w3.org/1999/xlink" xml:space="preserve" xmlns:serif="http://www.serif.com/" style="fill-rule:evenodd;clip-rule:evenodd;stroke-miterlimit:10;"><circle cx="1775.66" cy="1459.6" r="1459.6" style="fill:#f2f2f2;"/><ellipse cx="1708.33" cy="2882.1" rx="1708.33" ry="139.456" style="fill:#3f3d56;"/><path d="M2842,2385.62c-0,-83.382 -67.696,-151.078 -151.078,-151.078l-1965.18,0c-83.382,0 -151.078,67.696 -151.078,151.078l0,302.156c0,83.382 67.696,151.078 151.078,151.078l1965.18,-0c83.382,-0 151.078,-67.696 151.078,-151.078l-0,-302.156Z" style="fill:#2a2a3b;"/><path d="M2842,1781.31c-0,-83.382 -67.696,-151.078 -151.078,-151.078l-1965.18,0c-83.382,0 -151.078,67.696 -151.078,151.078l0,302.155c0,83.383 67.696,151.078 151.078,151.078l1965.18,0c83.382,0 151.078,-67.695 151.078,-151.078l-0,-302.155Z" style="fill:#2a2a3b;"/><path d="M2842,1177c-0,-83.383 -67.696,-151.078 -151.078,-151.078l-1965.18,-0c-83.382,-0 -151.078,67.695 -151.078,151.078l0,302.155c0,83.382 67.696,151.078 151.078,151.078l1965.18,0c83.382,0 151.078,-67.696 151.078,-151.078l-0,-302.155Z" style="fill:#2a2a3b;"/><path d="M1708.33,2554.34c0,-9.736 -7.904,-17.64 -17.64,-17.64l-869.137,-0c-9.736,-0 -17.64,7.904 -17.64,17.64l-0,35.281c-0,9.736 7.904,17.641 17.64,17.641l869.137,-0c9.736,-0 17.64,-7.905 17.64,-17.641l0,-35.281Z" style="fill:#fd6378;"/><g><path d="M830.901,2490.83c-94.02,144.184 -68.259,327.569 -68.259,327.569c0,0 178.199,-50.385 272.22,-194.57c94.02,-144.185 68.259,-327.57 68.259,-327.57c-0,0 -178.199,50.386 -272.22,194.571Z" style="fill:#3f3d56;fill-rule:nonzero;"/><path d="M762.142,2816.72c0,0 -2.289,-0.365 -6.501,-1.217c-3.36,-0.682 -7.987,-1.656 -13.636,-2.995c-50.5,-11.907 -184.762,-52.156 -272.541,-157.978c-109.865,-132.509 -105.238,-317.637 -105.238,-317.637c-0,-0 167.986,27.296 278.678,146.291c4.796,5.113 9.463,10.413 14,15.9c95.596,115.294 104.508,270.423 105.214,308.773c0.097,5.747 0.024,8.863 0.024,8.863Z" style="fill:#fd6378;fill-rule:nonzero;"/><path d="M694.383,2490.83c94.021,144.184 68.259,327.569 68.259,327.569c0,0 -178.199,-50.385 -272.219,-194.57c-94.021,-144.185 -68.259,-327.57 -68.259,-327.57c-0,0 178.199,50.386 272.219,194.571Z" style="fill:none;fill-rule:nonzero;stroke:#3f3d56;stroke-width:8.33px;"/><path d="M762.118,2807.86c-2.484,2.995 -4.675,5.552 -6.477,7.646c-3.993,4.553 -6.258,6.939 -6.258,6.939c-0,0 -2.751,-3.457 -7.378,-9.934c-25.396,-35.404 -107.088,-161.29 -100.782,-306.704c0.341,-7.621 0.901,-15.161 1.681,-22.62c4.796,5.113 9.463,10.413 14,15.9c95.596,115.294 104.508,270.423 105.214,308.773Z" style="fill-opacity:0.1;fill-rule:nonzero;"/><path d="M901.526,2516.32c-7.432,171.971 -135.089,306.124 -135.089,306.124c-0,-0 -115.609,-144.666 -108.177,-316.637c7.431,-171.971 135.089,-306.124 135.089,-306.124c-0,-0 115.608,144.666 108.177,316.637Z" style="fill:#fd6378;fill-rule:nonzero;"/><path d="M766.437,2817.58l28.065,-610.877" style="fill:none;fill-rule:nonzero;stroke:#3f3d56;stroke-width:8.33px;"/></g><circle cx="2571.16" cy="1328.08" r="125" style="fill:#fd6378;"/><circle cx="2571.16" cy="2536.7" r="125" style="fill:#fd6378;"/><circle cx="2571.16" cy="1932.39" r="125" style="fill:#fd6378;"/><path d="M1708.33,1345.72c0,-9.736 -7.904,-17.641 -17.64,-17.641l-869.137,0c-9.736,0 -17.64,7.905 -17.64,17.641l-0,35.281c-0,9.736 7.904,17.64 17.64,17.64l869.137,-0c9.736,-0 17.64,-7.904 17.64,-17.64l0,-35.281Z" style="fill:#fd6378;"/><path d="M1708.33,1950.03c0,-9.736 -7.904,-17.64 -17.64,-17.64l-869.137,-0c-9.736,-0 -17.64,7.904 -17.64,17.64l-0,35.281c-0,9.736 7.904,17.64 17.64,17.64l869.137,0c9.736,0 17.64,-7.904 17.64,-17.64l0,-35.281Z" style="fill:#fd6378;"/></svg>