<?xml version="1.0" encoding="UTF-8" standalone="no"?><!DOCTYPE svg PUBLIC "-//W3C//DTD SVG 1.1//EN" "http://www.w3.org/Graphics/SVG/1.1/DTD/svg11.dtd"><svg width="820" height="725.17352" viewBox="0 0 820 725.17352" version="1.1" xmlns="http://www.w3.org/2000/svg" xmlns:xlink="http://www.w3.org/1999/xlink" xml:space="preserve" xmlns:serif="http://www.serif.com/" style="fill-rule:evenodd;clip-rule:evenodd;stroke-linecap:round;stroke-linejoin:round;stroke-miterlimit:1.5;"><circle cx="1708.33" cy="1459.6" r="1459.6" style="fill:#f2f2f2;"/><ellipse cx="1708.33" cy="2882.1" rx="1708.33" ry="139.456" style="fill:#3f3d56;"/><g><path d="M1083.9,1264.42c-8.949,-68.577 -10.282,-139.144 -5.155,-211.399c20.896,-108.004 119.627,-171.823 175.274,-183.913c36.577,-7.947 82.53,34.297 134.905,35.793l91.5,1.267l81.851,-7.768l90.026,-15.461l475.509,16.513c60.583,0.819 106.759,33.638 139.188,96.991c21.945,85.995 31.293,174.624 18.043,267.977l-1201.14,0Z" style="fill:#fd6378;stroke:#fd6378;stroke-width:15.14px;"/><path d="M1084.95,2810.86c-24.135,-22.738 -37.168,-45.475 -42.441,-68.213l0,-1404.05c-0.186,-44.6 26.113,-77.493 44.999,-91.284l36.35,-19.649l1134.12,-6.735c23.298,20.229 76.103,83.43 76.706,158.024l0.047,80.651l223.061,22.763c98.699,6.069 171.019,51.624 183.264,169.036l7.545,440.184c-4.688,56.506 -28.651,105.301 -66.087,148.708c-89.822,83.103 -204.919,151.764 -340.588,208.67l-1.699,277.495c-5.618,23.599 -12.181,49.189 -32.893,71.111c-25.001,22.439 -39.783,30.368 -72.331,43.158l-1081.98,0c-23.772,-1.31 -46.397,-11.789 -68.073,-29.866Z" style="fill:#2a2a3b;stroke:#fd6378;stroke-width:15.14px;"/><path d="M2334.76,2227.51l2.216,-562.592l194.521,19.648l6.877,403.778c-48.827,61.038 -120.723,104.331 -203.614,139.166Z" style="fill:#f2f2f2;stroke:#fd6378;stroke-width:15.14px;"/><g><path d="M1368.14,1392.59c0,-16.326 -13.255,-29.581 -29.581,-29.581l-59.163,-0c-16.327,-0 -29.582,13.255 -29.582,29.581l0,998.126c0,16.327 13.255,29.582 29.582,29.582l59.163,-0c16.326,-0 29.581,-13.255 29.581,-29.582l0,-998.126Z" style="fill:none;stroke:#3f3d56;stroke-width:15.14px;"/><path d="M1632.6,1392.59c0,-16.326 -13.255,-29.581 -29.581,-29.581l-59.163,-0c-16.327,-0 -29.582,13.255 -29.582,29.581l0,998.126c0,16.327 13.255,29.582 29.582,29.582l59.163,-0c16.326,-0 29.581,-13.255 29.581,-29.582l0,-998.126Z" style="fill:none;stroke:#3f3d56;stroke-width:15.14px;"/><path d="M1899.09,1392.59c-0,-16.326 -13.255,-29.581 -29.582,-29.581l-59.163,-0c-16.326,-0 -29.581,13.255 -29.581,29.581l-0,998.126c-0,16.327 13.255,29.582 29.581,29.582l59.163,-0c16.327,-0 29.582,-13.255 29.582,-29.582l-0,-998.126Z" style="fill:none;stroke:#3f3d56;stroke-width:15.14px;"/><path d="M2166.86,1392.59c-0,-16.326 -13.255,-29.581 -29.582,-29.581l-59.163,-0c-16.326,-0 -29.581,13.255 -29.581,29.581l-0,998.126c-0,16.327 13.255,29.582 29.581,29.582l59.163,-0c16.327,-0 29.582,-13.255 29.582,-29.582l-0,-998.126Z" style="fill:none;stroke:#3f3d56;stroke-width:15.14px;"/></g></g><g><path d="M2632.97,1422.3c-0,-0 4.199,-33.334 9.861,-87.665c20.305,-194.85 59.422,-659.766 -8.879,-825.753c-137.409,-333.939 -1670.88,-281.597 -1890.65,0c-138.876,177.951 -0,918.559 -0,918.559l87.034,-92.806c-0,-0 -108.418,-598.685 -0,-742.058c191.181,-252.822 1606.65,-304.831 1707.01,0c42.94,130.43 -0,742.058 -0,742.058l95.619,87.665Z" style="fill:#3f3d56;stroke:#fd6378;stroke-width:15.14px;"/><path d="M830.342,1334.64l-87.034,92.806l87.034,-92.806Z" style="fill:#3f3d56;stroke:#fd6378;stroke-width:15.14px;"/><path d="M2592.73,1349.09c0,-35.595 -28.898,-64.493 -64.493,-64.493l-128.986,-0c-35.595,-0 -64.493,28.898 -64.493,64.493l-0,638.928c-0,35.595 28.898,64.493 64.493,64.493l128.986,0c35.595,0 64.493,-28.898 64.493,-64.493l0,-638.928Z" style="fill:#3f3d56;stroke:#fd6378;stroke-width:15.14px;"/><path d="M2675.18,1396.88c-0,-11.376 -9.236,-20.612 -20.613,-20.612l-41.224,-0c-11.376,-0 -20.612,9.236 -20.612,20.612l0,530.001c0,11.376 9.236,20.612 20.612,20.612l41.224,-0c11.377,-0 20.613,-9.236 20.613,-20.612l-0,-530.001Z" style="fill:#fd6378;stroke:#fd6378;stroke-width:15.14px;"/><path d="M1042.5,1349.09c0,-35.595 -28.898,-64.493 -64.493,-64.493l-128.986,-0c-35.595,-0 -64.493,28.898 -64.493,64.493l0,638.928c0,35.595 28.898,64.493 64.493,64.493l128.986,0c35.595,0 64.493,-28.898 64.493,-64.493l0,-638.928Z" style="fill:#3f3d56;stroke:#fd6378;stroke-width:15.14px;"/><path d="M784.532,1396.88c0,-11.376 -9.236,-20.612 -20.612,-20.612l-41.224,-0c-11.376,-0 -20.612,9.236 -20.612,20.612l-0,530.001c-0,11.376 9.236,20.612 20.612,20.612l41.224,-0c11.376,-0 20.612,-9.236 20.612,-20.612l0,-530.001Z" style="fill:#fd6378;stroke:#fd6378;stroke-width:15.14px;"/></g></svg>